<svg width="24.000000" height="24.000000" viewBox="0 0 24 24" fill="none" xmlns="http://www.w3.org/2000/svg" xmlns:xlink="http://www.w3.org/1999/xlink">
	<desc>
			Created with Pixso.
	</desc>
	<defs/>
	<path id="Vector" d="M12 0C5.37 0 0 5.37 0 12C0 18.62 5.37 24 12 24C18.62 24 24 18.62 24 12C24 5.37 18.62 0 12 0ZM15.22 18.18C13.63 18.08 10.51 16.26 9.05 14.62C7.6 12.97 6.15 9.65 6.25 8.06C6.25 8.06 7.98 5.77 8.77 5.81C9.57 5.86 11.82 8.39 10.97 9.14C10.13 9.89 9.33 9.84 9.29 10.64C9.24 11.43 9.99 12.28 10.73 13.12C11.48 13.97 12.23 14.8 13.03 14.85C13.82 14.9 13.87 14.11 14.71 13.35C15.55 12.61 17.8 15.14 17.75 15.93C17.71 16.73 15.22 18.18 15.22 18.18Z" fill="#FFFFFF" fill-opacity="1.000000" fill-rule="nonzero"/>
</svg>
