<svg width="28.333282" height="28.000000" viewBox="0 0 28.3333 28" fill="none" xmlns="http://www.w3.org/2000/svg" xmlns:xlink="http://www.w3.org/1999/xlink">
	<desc>
			Created with Pixso.
	</desc>
	<defs>
		<clipPath id="clip6_299">
			<rect id="facebook (5) 1" width="28.333288" height="28.000000" fill="white" fill-opacity="0"/>
		</clipPath>
	</defs>
	<rect id="facebook (5) 1" width="28.333288" height="28.000000" fill="#FFFFFF" fill-opacity="0"/>
	<g clip-path="url(#clip6_299)">
		<path id="Vector" d="M4.15 28L13.39 28L13.39 18.04L10.07 18.04L10.07 14.76L13.39 14.76L13.39 10.66C13.39 8.4 15.25 6.56 17.54 6.56L21.69 6.56L21.69 9.84L18.37 9.84C17.45 9.84 16.71 10.57 16.71 11.48L16.71 14.76L21.54 14.76L20.98 18.04L16.71 18.04L16.71 28L24.18 28C26.47 28 28.33 26.16 28.33 23.89L28.33 4.1C28.33 1.83 26.47 0 24.18 0L4.15 0C1.86 0 0 1.83 0 4.1L0 23.89C0 26.16 1.86 28 4.15 28ZM1.66 4.1C1.66 2.74 2.77 1.64 4.15 1.64L24.18 1.64C25.55 1.64 26.67 2.74 26.67 4.1L26.67 23.89C26.67 25.25 25.55 26.35 24.18 26.35L18.37 26.35L18.37 19.68L22.39 19.68L23.5 13.12L18.37 13.12L18.37 11.48L23.35 11.48L23.35 4.92L17.54 4.92C14.33 4.92 11.73 7.49 11.73 10.66L11.73 13.12L8.41 13.12L8.41 19.68L11.73 19.68L11.73 26.35L4.15 26.35C2.77 26.35 1.66 25.25 1.66 23.89L1.66 4.1Z" fill="#FFFFFF" fill-opacity="1.000000" fill-rule="nonzero"/>
	</g>
</svg>
